<!-- Created with Inkscape (http://www.inkscape.org/) -->
<svg width="230.93" height="150" version="1.1" viewBox="0 0 61.1 39.688" xmlns="http://www.w3.org/2000/svg">
 <g transform="translate(-52.175 -39.798)">
  <g transform="matrix(4.1634 0 0 4.1634 -165.05 -125.9)">
   <g>
    <path d="m63.278 42.303h-2.3989v-2.4388h2.3989z" fill="#0079c1"/>
    <path d="m58.143 41.084c0-0.71014 0.57573-1.2862 1.2862-1.2862 0.71014 0 1.2859 0.57609 1.2859 1.2862s-0.57573 1.2862-1.2859 1.2862c-0.7105 0-1.2862-0.57609-1.2862-1.2862" fill="#e50b14"/>
    <path d="m63.387 39.864 1.4429 2.5061 1.4432-2.5061z" fill="#00a33f"/>
    <g fill="#fff">
     <path d="m59.963 41.395c-0.10724 0.1838-0.30656 0.30727-0.53411 0.30727-0.34114 0-0.61842-0.27728-0.61842-0.61842 0-0.34078 0.27728-0.61807 0.61842-0.61807 0.22754 0 0.42686 0.12347 0.53411 0.30727l0.1838-0.10724c-0.14393-0.24659-0.41134-0.41275-0.7179-0.41275-0.45896 0-0.83079 0.37218-0.83079 0.83079 0 0.45896 0.37183 0.83114 0.83079 0.83114 0.30656 0 0.57397-0.16616 0.7179-0.4131z"/>
     <path d="m62.841 40.29h-1.5254v0.21272h0.6537v1.3762h0.21802v-1.3762h0.6537z"/>
     <path d="m65.744 40.29h-0.25365l-0.66075 1.1592-0.66146-1.1592h-0.25365l0.91511 1.5889 0.91511-1.5889z"/>
    </g>
   </g>
   <path d="m65.054 49.278h1.258v-0.26176h-0.98566v-1.3794h-0.27234zm-6.8644-0.55527h-0.60325c0.09913-0.1972 0.19685-0.39123 0.30021-0.59655 0.10372 0.20426 0.20214 0.39793 0.30304 0.59655m0.55598 0.51082c-0.27093-0.5207-0.54151-1.0414-0.81245-1.5621-0.01023-0.02011-0.0187-0.03775-0.04727-0.03775-0.02963 3.53e-4 -0.03634 0.01975-0.04621 0.03916-0.20849 0.40181-0.41734 0.80363-0.62583 1.2054-0.06879 0.13264-0.13688 0.26564-0.20849 0.40428 0.09419 0 0.18027-0.0014 0.26635 7.06e-4 0.02752 7.05e-4 0.03845-0.01305 0.04868-0.03422 0.03598-0.07408 0.07444-0.1464 0.10901-0.22084 0.01376-0.02999 0.03104-0.03986 0.06385-0.03986 0.26317 0.0014 0.52634 0.0014 0.78952 0 0.03387-3.52e-4 0.04974 0.01199 0.06315 0.04092 0.03492 0.07444 0.07338 0.14711 0.11042 0.22049 0.0092 0.01764 0.01658 0.03387 0.04304 0.03351 0.08749-0.0018 0.17533-7.06e-4 0.27023-7.06e-4 -0.01023-0.02117-0.01693-0.03528-0.02399-0.04904m-4.9392-1.6217c-0.4124 0.09454-0.69532 0.45755-0.68227 0.86889 0.01341 0.4124 0.31397 0.76482 0.70979 0.83538 0.42827 0.0762 0.78846-0.16757 0.90876-0.42122-0.07867-0.04621-0.15734-0.09243-0.23636-0.13864-0.24059 0.38206-0.65793 0.36512-0.88653 0.1591-0.26529-0.23918-0.27552-0.64664-0.02081-0.89464 0.11642-0.11359 0.25859-0.17004 0.42016-0.16122 0.21484 0.01129 0.37218 0.12312 0.48542 0.30409 0.0822-0.04833 0.16122-0.0949 0.23989-0.14146-0.15169-0.29245-0.53446-0.50271-0.93804-0.41028m1.3603 0.02787v1.6394h0.27517v-0.68191h0.92781v0.68051h0.27129v-1.639h-0.27552v0.68933h-0.92322v-0.68827zm3.9684 1.6387h0.27728v-1.0739c0.01976 0.01729 0.0321 0.02752 0.04339 0.0381 0.36054 0.33479 0.72072 0.66957 1.0809 1.0047 0.02505 0.02328 0.04833 0.04868 0.08643 0.02928v-1.6369h-0.27622v1.0643c-0.02011-0.01834-0.03316-0.02999-0.04621-0.04198-0.36019-0.33161-0.72037-0.66358-1.0809-0.99554-0.02364-0.02187-0.04727-0.04516-0.08467-0.02399zm2.0419-3.53e-4h0.27728v-1.076c0.01552 0.01482 0.02258 0.02117 0.02963 0.02787 0.36618 0.34008 0.73272 0.68016 1.0986 1.0206 0.0261 0.02434 0.0508 0.04445 0.08855 0.02434v-1.6362h-0.27622v1.0576c-0.02046 0.0025-0.02575-0.01023-0.03422-0.01799-0.36654-0.3369-0.73272-0.67381-1.0989-1.0114-0.02293-0.02117-0.04445-0.04163-0.08467-0.02646zm2.044 7.06e-4h1.3384v-0.26176h-1.0612v-0.4258h0.92498v-0.26494h-0.92534v-0.42792h1.0608v-0.25999h-1.3377zm3.5736-5.5238c-0.02223-0.1972-0.04657-0.3944-0.06632-0.59196-0.0046-0.04516-0.02046-0.06562-0.0635-0.07902-0.30692-0.09701-0.62054-0.14676-0.94298-0.13441-0.22684 0.0088-0.44662 0.05045-0.64911 0.15769-0.33196 0.17568-0.51506 0.44238-0.50482 0.82832 0.0074 0.26035 0.13335 0.45473 0.3242 0.61877 0.28222 0.24306 0.59514 0.44344 0.89852 0.65722 0.16651 0.11712 0.32456 0.24412 0.43886 0.41592 0.14781 0.2219 0.14217 0.48648-0.01376 0.70344-0.33373 0.4632-1.0619 0.40428-1.3342-0.1076-0.0635-0.11994-0.09737-0.24941-0.12312-0.381h-0.21378c0.01729 0.27834 0.03493 0.5521 0.05221 0.82832 0.01764 0.0063 0.03422 0.0127 0.05115 0.01799 0.32879 0.10231 0.66569 0.14534 1.0096 0.13018 0.24059-0.01058 0.47237-0.05927 0.68756-0.17427 0.51506-0.27552 0.58138-0.8068 0.44309-1.1772-0.06526-0.17498-0.20144-0.29245-0.33972-0.40605-0.29034-0.23883-0.60995-0.43674-0.91722-0.65264-0.13864-0.09737-0.26882-0.2039-0.36512-0.34608-0.19614-0.28892-0.11606-0.65334 0.18239-0.83502 0.42086-0.25612 1.0005-0.04692 1.185 0.42827 0.02081 0.05327 0.03739 0.1083 0.05539 0.16087h0.21131c-0.0018-0.02258-0.0032-0.04233-0.0056-0.06174m-10.051-0.70378v0.16863c0.08149 0.0088 0.15981 0.0039 0.23671 0.02081 0.09384 0.02046 0.15381 0.07232 0.17286 0.16898 0.01376 0.07126 0.02293 0.14252 0.02293 0.21519-3.53e-4 0.84138-3.53e-4 1.6831 0 2.5248 0 0.06667-0.0063 0.13229-0.02187 0.19685-0.02963 0.12559-0.08361 0.17462-0.2099 0.19897-0.06738 0.0127-0.13511 0.0071-0.20108 0.01235v0.17321h2.5319c0.02328-0.24589 0.04586-0.48824 0.06879-0.73342h-0.21414c-0.0042 0.02293-0.0085 0.0441-0.01235 0.06562-0.01623 0.08678-0.03704 0.17216-0.07408 0.2533-0.04974 0.10795-0.13123 0.17992-0.25047 0.19262-0.2667 0.02752-0.5334 0.02152-0.79622-0.03739-0.22895-0.05115-0.30762-0.15558-0.30798-0.38947 0-0.39194 0-0.78352 3.52e-4 -1.1751 0-0.02152-0.0063-0.0441 0.0092-0.06668 0.17921 0 0.35983-0.0014 0.5401 3.53e-4 0.11642 0.0011 0.23319-0.0011 0.34784 0.02293 0.11642 0.02434 0.15875 0.06879 0.18133 0.18556 0.01129 0.05891 0.01199 0.11889 0.01376 0.17992h0.21484v-0.95497h-0.21805c0 0.03775 0.0018 0.07373-3.52e-4 0.10901-0.01164 0.17533-0.05962 0.23036-0.23107 0.26-0.18944 0.03245-0.38065 0.01729-0.57115 0.02011-0.09419 0.0011-0.18838 0-0.28152 0-0.01094-0.09243-0.0071-1.355 0.0046-1.4051 0.33761 0.0085 0.67663-0.01129 1.0153 0.0247 0.17216 0.01834 0.25682 0.11254 0.29386 0.26811 0.01411 0.06033 0.02505 0.12136 0.03739 0.18239h0.21272c-0.02469-0.2286-0.04904-0.45332-0.07373-0.68227zm6.4671 2.7975c-0.34255-0.93345-0.68509-1.8669-1.0266-2.7975h-0.17498c-0.2928 0.93063-0.5849 1.8595-0.88124 2.8018-0.22578-0.73836-0.44768-1.4601-0.66675-2.183-0.03245-0.10724-0.0568-0.21766-0.03245-0.33196 0.01164-0.05503 0.04374-0.08608 0.09913-0.09913 0.07091-0.01693 0.14358-0.0088 0.21414-0.02011v-0.16792h-1.1846v0.17216c0.17427-0.01305 0.25576 0.09737 0.31715 0.23213 0.02399 0.05292 0.04621 0.10654 0.0635 0.16192 0.27376 0.89041 0.54645 1.7812 0.81915 2.6716 0.04551 0.14887 0.09102 0.29739 0.13547 0.44309h0.18274c0.30021-0.94686 0.59972-1.8912 0.90311-2.848 0.35666 0.9585 0.70873 1.9039 1.0604 2.8497h0.17533c6e-3 -0.01799 0.01235-0.03669 0.01799-0.05539 0.26458-0.87842 0.52811-1.7572 0.79375-2.6356 0.0635-0.21061 0.11536-0.42545 0.20638-0.62724 0.05468-0.12171 0.13723-0.20144 0.28046-0.19438 0.0032 0 0.0063-0.0042 0.01129-0.0074v-0.16157h-0.91581v0.16898c0.06879 0.0092 0.13723 0.01023 0.20214 0.03281 0.09384 0.03281 0.12665 0.08361 0.11501 0.18309-0.0099 0.08608-0.02787 0.17004-0.05292 0.25294-0.14323 0.47801-0.28646 0.95568-0.42968 1.4333-0.07267 0.24165-0.1457 0.4826-0.21872 0.7239zm-10.049-2.6963v0.52352c0 0.76376-3.53e-4 1.5272 3.53e-4 2.2906 0 0.08819 0.0042 0.17639 0.0187 0.26388 0.03669 0.21872 0.121 0.29598 0.34361 0.31327 0.06597 0.0049 0.13194 6e-3 0.2032 0.0092v0.17427h-1.4799v-0.17392c0.05997-0.0028 0.11783-0.0049 0.17533-0.0088 0.24059-0.01623 0.33796-0.11077 0.3623-0.3489 0.0085-0.08608 0.0127-0.17216 0.0127-0.25859-3.53e-4 -1.0467-3.53e-4 -2.0934 3.53e-4 -3.1404 0-0.0381-0.0085-0.06844-0.03316-0.09807-0.07197-0.08643-0.14358-0.17286-0.23036-0.24553-0.10336-0.08573-0.2166-0.14534-0.35983-0.13723v-0.17815h0.17427c0.22331 0 0.44626 0.0011 0.66922-7.05e-4 0.03986-3.53e-4 0.06526 0.01094 0.09102 0.04304 0.90805 1.1303 1.8172 2.2599 2.7263 3.3895 0.0092 0.01199 0.01975 0.02293 0.03916 0.04551v-0.07197-2.6402c0-0.08043-0.0035-0.16051-0.01341-0.24024-0.02716-0.22542-0.121-0.3175-0.3489-0.33726-0.06597-6e-3 -0.13194-0.0085-0.20214-0.01305v-0.1718h1.4676c0.01305 0.05609 0.0018 0.11148 0.0067 0.17074-0.06985 0.0046-0.13547 0.0081-0.20073 0.0134-0.22401 0.01764-0.31962 0.10795-0.34819 0.33055-0.0088 0.06773-0.01341 0.13547-0.01341 0.20391 0 1.1917-0.0011 2.383-0.0018 3.5743v0.29034c-0.07444 0.01588-0.127 0.01094-0.17815-0.05221-0.93874-1.1571-1.88-2.3121-2.8208-3.4678-0.01588-0.0194-0.0321-0.03881-0.04833-0.05821-0.0039 0.0025-0.0078 0.0046-0.01164 0.0071" fill="#16355c"/>
  </g>
 </g>
</svg>
